PathFileType	4	(X/Y/Z)	c:/Users/goper/Files/vsCode/490R/osim_files/C07/C07_Slow_04.trc
DataRate	CameraRate	NumFrames	NumMarkers	Units                	OrigDataRate	OrigDataStartFrame	OrigNumFrames
250.00	250.00	8	36	mm	250.0	3523	4026
                Frame#	Time	LPSIS			LASIS			LTH1			LTH2			LTH3			LTH4			LLFE			LMFE			LSH1			LSH2			LSH3			LSH4			LLMAL			LMMAL			LCAL			LMTP5			LTOE			LMTP1			RPSIS			RASIS			RTH1			RTH2			RTH3			RTH4			RLFE			RMFE			RSH1			RSH2			RSH3			RSH4			RLMAL			RMMAL			RCAL			RMTP1			RTOE			RMTP5		
		X1	Y1	Z1	X2	Y2	Z2	X3	Y3	Z3	X4	Y4	Z4	X5	Y5	Z5	X6	Y6	Z6	X7	Y7	Z7	X8	Y8	Z8	X9	Y9	Z9	X10	Y10	Z10	X11	Y11	Z11	X12	Y12	Z12	X13	Y13	Z13	X14	Y14	Z14	X15	Y15	Z15	X16	Y16	Z16	X17	Y17	Z17	X18	Y18	Z18	X19	Y19	Z19	X20	Y20	Z20	X21	Y21	Z21	X22	Y22	Z22	X23	Y23	Z23	X24	Y24	Z24	X25	Y25	Z25	X26	Y26	Z26	X27	Y27	Z27	X28	Y28	Z28	X29	Y29	Z29	X30	Y30	Z30	X31	Y31	Z31	X32	Y32	Z32	X33	Y33	Z33	X34	Y34	Z34	X35	Y35	Z35	X36	Y36	Z36

3523	14.08800	-2626.26831	996.96619	316.86353	-2769.07666	973.04156	440.25543	0.00000	0.00000	0.00000	0.00000	0.00000	0.00000	-2757.53296	619.15491	440.63690	-2811.10938	714.39105	463.69257	-2766.70142	496.78522	405.10852	-2808.20312	498.54587	289.72046	-2778.00000	301.17456	388.75723	0.00000	0.00000	0.00000	0.00000	0.00000	0.00000	-2825.65430	276.66846	381.31741	-2834.03003	95.03031	303.99057	-2885.70337	130.41832	259.94901	-2813.12085	44.89047	229.71202	-2931.14087	37.53888	386.12103	-3006.43823	51.30806	372.05252	-3010.35449	40.49493	312.71378	-2658.74756	1003.68640	221.24014	0.00000	0.00000	0.00000	0.00000	0.00000	0.00000	-2808.57642	738.62738	115.34045	-2811.79004	656.70270	115.59570	-2870.90820	740.54858	161.56792	-2785.02759	480.83328	129.16866	-2773.51270	483.01556	245.12802	0.00000	0.00000	0.00000	0.00000	0.00000	0.00000	0.00000	0.00000	0.00000	-2631.04077	328.72809	100.38205	-2458.65747	249.17403	111.19704	-2479.14062	232.04459	189.32100	-2385.85425	260.94873	155.89093	-2491.55103	86.25388	200.09688	-2513.38232	73.60107	152.75571	-2471.93970	91.66016	92.14188
3524	14.09200	-2629.06079	997.00848	317.47574	-2771.57812	973.30157	441.43430	0.00000	0.00000	0.00000	0.00000	0.00000	0.00000	-2758.97217	619.30316	441.51462	-2812.62646	714.28589	464.82236	-2768.25781	496.87805	405.76108	-2809.84204	498.77640	290.44046	-2779.12500	301.34744	389.28024	0.00000	0.00000	0.00000	0.00000	0.00000	0.00000	-2826.75317	276.79602	381.75748	-2834.14160	95.16578	304.06656	-2885.27832	130.48752	259.66547	-2814.45142	44.58131	230.60205	-2933.42407	39.18920	387.38251	-3006.46973	51.15473	372.03836	-3010.48047	40.44736	312.70465	0.00000	0.00000	0.00000	0.00000	0.00000	0.00000	0.00000	0.00000	0.00000	-2814.37476	738.66357	116.97292	-2818.40625	656.75555	117.32027	-2876.40747	741.28015	163.63344	-2794.63892	480.97540	131.45619	-2780.64722	483.39911	247.00792	0.00000	0.00000	0.00000	-2617.20679	344.93381	89.94239	0.00000	0.00000	0.00000	-2640.09863	330.43738	101.74350	-2465.69775	252.40152	110.31486	-2485.30078	234.84189	188.62418	-2393.25024	265.09735	154.52763	-2497.85938	90.23043	200.11443	-2520.38110	76.71613	152.13422	-2476.71436	94.70528	91.12646
3525	14.09600	-2631.81787	997.15948	317.98679	-2773.95898	973.60095	442.60187	0.00000	0.00000	0.00000	0.00000	0.00000	0.00000	-2760.49097	619.39899	442.39523	-2814.15503	714.30353	465.93143	-2769.37207	497.05612	406.26144	-2811.33960	498.92917	291.11111	-2779.70776	301.90018	391.06384	0.00000	0.00000	0.00000	0.00000	0.00000	0.00000	-2827.59375	276.79373	382.13751	-2834.28296	95.24677	304.10980	-2886.12500	131.84621	259.35052	-2813.15649	44.90252	229.75177	-2931.20996	37.51551	386.13947	-3006.54517	51.07587	372.02603	-3010.55786	40.41143	312.72116	0.00000	0.00000	0.00000	0.00000	0.00000	0.00000	0.00000	0.00000	0.00000	-2820.24048	738.77667	118.63640	-2825.00000	656.88318	119.07275	-2881.83911	741.99524	165.74847	-2803.00684	481.16412	133.47508	-2787.70410	483.88260	248.87440	0.00000	0.00000	0.00000	-2623.22998	345.40469	90.04428	0.00000	0.00000	0.00000	-2648.47021	331.80093	102.58180	-2472.11621	255.35100	109.62934	-2491.66553	237.78989	187.86293	-2400.14893	268.99139	153.16879	-2501.01147	91.90120	198.23141	-2525.60449	79.65441	151.32857	-2483.09497	98.12614	89.80678
3526	14.10000	-2634.53003	997.29486	318.63000	-2776.28491	973.82886	443.81140	0.00000	0.00000	0.00000	0.00000	0.00000	0.00000	-2761.92261	619.54657	443.14130	-2815.77319	714.34418	466.93723	-2770.65234	497.18042	406.76932	-2812.85889	499.10971	291.80844	-2780.93066	301.46402	390.25687	0.00000	0.00000	0.00000	0.00000	0.00000	0.00000	-2828.42627	276.82230	382.47415	-2834.37329	95.45677	304.08020	-2886.28564	131.85301	259.36011	-2813.13037	44.93444	229.83034	-2931.26172	37.58420	386.12057	-3006.68188	51.08428	372.01035	-3010.58521	40.36025	312.70987	0.00000	0.00000	0.00000	0.00000	0.00000	0.00000	0.00000	0.00000	0.00000	-2826.01294	738.94391	120.37047	-2831.56274	657.10474	120.99606	-2887.29370	742.77844	167.93202	-2811.34058	481.54840	135.55658	-2794.59668	484.32556	250.73991	0.00000	0.00000	0.00000	0.00000	0.00000	0.00000	0.00000	0.00000	0.00000	-2656.72095	333.15454	103.39021	-2479.78979	258.62485	108.58064	-2498.04663	240.65392	187.34622	-2406.85522	272.48926	151.83772	-2506.47095	94.74569	197.14853	-2528.83594	81.83799	150.28331	-2489.21240	101.28923	88.55935
3527	14.10400	-2637.24365	997.44348	319.15393	-2778.52759	974.07104	445.00461	0.00000	0.00000	0.00000	0.00000	0.00000	0.00000	-2763.26172	619.70923	443.69748	-2817.40820	714.40387	467.98575	-2772.07153	497.30359	407.41104	-2814.21387	499.24426	292.41046	-2781.82593	301.60345	390.66025	0.00000	0.00000	0.00000	0.00000	0.00000	0.00000	-2829.26831	276.84000	382.79718	-2834.47437	95.49549	304.04147	-2886.43994	131.82391	259.36603	-2813.08984	44.98677	229.82512	-2931.29736	37.59537	386.12070	-3006.66357	50.94391	371.95520	-3010.63135	40.29864	312.72824	0.00000	0.00000	0.00000	0.00000	0.00000	0.00000	0.00000	0.00000	0.00000	-2831.77759	739.18018	122.09504	0.00000	0.00000	0.00000	-2892.62573	743.59210	170.19658	-2819.56299	481.95996	137.64871	0.00000	0.00000	0.00000	0.00000	0.00000	0.00000	0.00000	0.00000	0.00000	0.00000	0.00000	0.00000	-2665.44434	334.50397	104.19277	-2486.95972	261.57364	107.80354	-2504.32275	243.39218	186.97696	-2413.38721	275.61487	150.60590	-2512.06519	97.54214	196.04102	-2534.88257	84.67821	149.37560	-2495.76465	104.28497	87.37573
3528	14.10800	-2639.95459	997.58978	319.76495	-2780.74023	974.27820	446.20502	0.00000	0.00000	0.00000	0.00000	0.00000	0.00000	-2764.75000	619.87317	444.32706	-2819.04199	714.34937	468.96439	-2773.05615	497.55020	407.82886	-2815.63232	499.38956	293.00781	-2782.53125	301.75177	390.91467	0.00000	0.00000	0.00000	0.00000	0.00000	0.00000	-2829.73364	276.75388	383.06985	-2836.91797	96.40054	306.39734	-2886.59155	131.79109	259.37494	-2813.14478	45.08868	229.57072	-2931.25684	37.55377	386.06271	-3006.67896	50.87315	371.92719	-3010.63574	40.23021	312.70105	0.00000	0.00000	0.00000	0.00000	0.00000	0.00000	0.00000	0.00000	0.00000	-2837.52417	739.46198	123.88902	0.00000	0.00000	0.00000	-2897.98364	744.48132	172.50339	-2827.74609	482.40378	139.83398	0.00000	0.00000	0.00000	0.00000	0.00000	0.00000	0.00000	0.00000	0.00000	0.00000	0.00000	0.00000	-2673.09717	335.94678	105.08089	-2494.05811	264.53040	106.98849	-2510.67896	245.91249	186.80551	-2419.83838	278.33969	149.35391	-2518.14673	100.08565	194.87772	-2543.53516	88.03992	148.55643	-2502.65991	107.32152	86.18016
3529	14.11200	-2642.58911	997.73724	320.38388	-2782.92236	974.51440	447.42075	0.00000	0.00000	0.00000	0.00000	0.00000	0.00000	-2766.35815	619.98132	444.90286	-2820.63745	714.32367	469.88217	-2774.39697	497.63181	408.34952	-2816.96411	499.58572	293.55954	-2783.28027	301.77890	391.18826	0.00000	0.00000	0.00000	0.00000	0.00000	0.00000	-2830.32373	276.71356	383.24838	-2834.53467	95.63704	303.79700	-2886.76221	131.78203	259.34045	-2813.40869	44.79509	228.71783	-2931.26978	37.51153	386.09415	-3006.62793	50.68419	371.88583	-3010.68384	40.16984	312.71695	0.00000	0.00000	0.00000	0.00000	0.00000	0.00000	0.00000	0.00000	0.00000	-2843.24316	739.78790	125.78573	0.00000	0.00000	0.00000	0.00000	0.00000	0.00000	-2834.60913	482.94211	141.65083	0.00000	0.00000	0.00000	-2676.45337	407.54474	96.95436	0.00000	0.00000	0.00000	0.00000	0.00000	0.00000	-2681.23193	337.39236	105.98300	-2501.32324	267.24997	106.32903	-2517.20776	248.31149	186.62785	-2426.29443	280.99603	148.20183	-2524.48438	102.48617	193.73251	-2550.11426	90.46672	147.58707	-2509.75073	110.11457	84.88688
3530	14.11600	-2645.32397	997.97089	320.93704	-2785.00854	974.67511	448.67896	0.00000	0.00000	0.00000	0.00000	0.00000	0.00000	-2767.96094	620.17969	445.40738	-2822.26245	714.38879	470.73032	-2775.52490	497.69424	408.70712	-2820.69824	500.00916	294.21780	-2783.96362	301.81561	391.33633	0.00000	0.00000	0.00000	0.00000	0.00000	0.00000	-2830.95044	276.75378	383.50693	-2834.54688	95.67437	303.77988	-2885.66577	131.03839	260.47083	-2813.39648	44.80003	228.73785	-2931.24121	37.45547	386.06625	-3006.62036	50.53244	371.83295	-3010.71094	40.09803	312.72446	0.00000	0.00000	0.00000	0.00000	0.00000	0.00000	0.00000	0.00000	0.00000	-2848.93481	740.11993	127.62592	0.00000	0.00000	0.00000	0.00000	0.00000	0.00000	-2842.58032	483.53491	143.96751	0.00000	0.00000	0.00000	-2684.27148	408.63950	97.85229	0.00000	0.00000	0.00000	0.00000	0.00000	0.00000	-2689.95166	338.94031	106.94261	-2508.29517	271.61786	103.75809	-2525.25244	248.53491	180.83099	-2433.08447	283.37341	147.05647	-2530.96582	104.74645	192.62904	-2554.90527	92.45750	146.38272	-2517.15869	112.90396	83.55823
